<?xml version="1.0" encoding="UTF-8"?>
<svg version="1.1" viewBox="0 0 1600 1024" width="1280" height="1280" xmlns="http://www.w3.org/2000/svg">
<path transform="translate(1014,124)" d="m0 0c4.06-0.0873 8.12-0.14 12.2-0.188 1.73-0.0377 1.73-0.0377 3.49-0.0762 1.67-0.0145 1.67-0.0145 3.37-0.0293 1.02-0.0157 2.04-0.0314 3.09-0.0476 2.86 0.341 2.86 0.341 5.23 1.83 3.53 2.02 6.75 1.93 10.7 1.91 1.15 0.0163 1.15 0.0163 2.32 0.0328 3.26 0.0458 6.52 0.0574 9.78 0.0721 2.38 0.0156 4.77 0.0486 7.15 0.0825 0.74-0.00302 1.48-0.00604 2.24-0.00916 2.07 0.0306 2.07 0.0306 5.43 0.415 0.66 0.99 1.32 1.98 2 3 1.97 0.549 1.97 0.549 4.25 0.625 0.837 0.067 1.67 0.134 2.54 0.203 0.876 0.0567 1.75 0.113 2.65 0.172 1.73 0.112 3.46 0.237 5.18 0.375 0.768 0.049 1.54 0.098 2.33 0.148 2.51 0.584 3.26 1.68 5.05 3.48 2.02 0.499 2.02 0.499 4.23 0.512 0.802 0.0354 1.6 0.0709 2.43 0.107 0.833 0.0226 1.67 0.0451 2.53 0.0684 0.845 0.0342 1.69 0.0683 2.56 0.104 2.08 0.0824 4.17 0.147 6.25 0.209 0.33 0.99 0.66 1.98 1 3 1.63 1.22 1.63 1.22 3.56 2.19 1.7 0.897 1.7 0.897 3.44 1.81v2h9v4h9v4c2.97 0.33 5.94 0.66 9 1v4h8c0.33 0.99 0.66 1.98 1 3 1.81 0.693 1.81 0.693 3.94 1 2.15 0.375 2.15 0.375 4.06 1 0.66 0.99 1.32 1.98 2 3 0.99 0.66 1.98 1.32 3 2 0.33 0.66 0.66 1.32 1 2 2.31 0.731 4.65 1.4 7 2v2c1.65 0.33 3.3 0.66 5 1 0.33 0.99 0.66 1.98 1 3 1.32 0.699 2.65 1.37 4 2 0.33 0.66 0.66 1.32 1 2 2.31 0.731 4.65 1.4 7 2v3c1.65 0.33 3.3 0.66 5 1v4c1.32 0.33 2.64 0.66 4 1v4c0.536 0.268 1.07 0.536 1.62 0.812 2.79 1.4 5.58 2.79 8.38 4.19v3c1.32 0.33 2.64 0.66 4 1v3c1.32 0.33 2.64 0.66 4 1v4c1.65 0.33 3.3 0.66 5 1v4h4v4c1.32 0.33 2.64 0.66 4 1v3c1.65 0.66 3.3 1.32 5 2-0.33 0.66-0.66 1.32-1 2 0.279 1.68 0.608 3.35 1 5 1.32 0.33 2.64 0.66 4 1v3c1.65 0.66 3.3 1.32 5 2v3c1.32 0.33 2.64 0.66 4 1v8c1.32 0.33 2.64 0.66 4 1 0.33 2.31 0.66 4.62 1 7 1.32 0.33 2.64 0.66 4 1-0.33 1.65-0.66 3.3-1 5h2c1.9 2.85 2.46 4.42 3.12 7.69 0.168 0.808 0.335 1.62 0.508 2.45 0.121 0.615 0.242 1.23 0.367 1.86 1.32 0.33 2.64 0.66 4 1v8c1.32 0.33 2.64 0.66 4 1-0.0206 0.949-0.0412 1.9-0.0625 2.88-0.163 3.03-0.163 3.03 1.06 5.12 1.32 0.33 2.64 0.66 4 1v10h4c-0.0116 0.915-0.0232 1.83-0.0352 2.77-0.00902 1.19-0.018 2.38-0.0273 3.6-0.0116 1.18-0.0232 2.37-0.0352 3.59-0.117 2.96-0.117 2.96 1.1 5.04 0.99 0.33 1.98 0.66 3 1 0.33 5.61 0.66 11.2 1 17 1.32 0.33 2.64 0.66 4 1-0.33 6.93-0.66 13.9-1 21 1.65 0.33 3.3 0.66 5 1 0.0235 7.33 0.0411 14.7 0.0518 22 0.00515 3.41 0.0121 6.81 0.0236 10.2 0.05 16-0.0924 31.9-1.08 47.8h-3c-0.33 7.26-0.66 14.5-1 22h-3c-0.33 5.61-0.66 11.2-1 17-0.99 0.33-1.98 0.66-3 1-0.144 1.03-0.289 2.06-0.438 3.12-0.479 3.3-1 6.59-1.56 9.88h-3c-0.33 4.29-0.66 8.58-1 13h-3c-0.144 1.09-0.289 2.19-0.438 3.31-0.562 3.69-0.562 3.69-1.56 6.69h-3c-0.33 3.96-0.66 7.92-1 12-0.99 0.33-1.98 0.66-3 1-0.802 1.87-0.802 1.87-1.19 4.06-0.159 0.733-0.317 1.47-0.48 2.22-0.164 0.849-0.164 0.849-0.332 1.71h-3c-0.33 2.64-0.66 5.28-1 8-0.99 0.33-1.98 0.66-3 1-0.733 2.02-0.733 2.02-1 4h-3v3c5.61 0.33 11.2 0.66 17 1v-4h22v4c7.26 0.33 14.5 0.66 22 1 0.33 0.99 0.66 1.98 1 3 4.29 0.33 8.58 0.66 13 1v4l1.83-0.0352c1.2-0.0135 1.2-0.0135 2.42-0.0273 0.789-0.0116 1.58-0.0232 2.39-0.0352 2.27 0.0938 4.19 0.465 6.36 1.1v4h10v4h8v5h8v4h5c0.33 1.32 0.66 2.64 1 4 1.32 0.33 2.64 0.66 4 1v4h4v4c1.65 0.33 3.3 0.66 5 1v4h8c0.33 2.64 0.66 5.28 1 8 1.32 0.33 2.64 0.66 4 1v3h4c0.33 1.32 0.66 2.64 1 4 1.32 0.33 2.64 0.66 4 1v4h4v8c1.65 0.33 3.3 0.66 5 1v7c1.32 0.33 2.64 0.66 4 1v5h4c-0.33 2.97-0.66 5.94-1 9 2.31 0.33 4.62 0.66 7 1v11c0.99 0.33 1.98 0.66 3 1 0.0889 3.2-0.0894 5.93-1 9 1.98 0.33 3.96 0.66 6 1v17c1.32 0.33 2.64 0.66 4 1-0.33 21.8-0.66 43.6-1 66h-3c-0.33 5.94-0.66 11.9-1 18h-3c-0.0909 0.905-0.0909 0.905-0.184 1.83-0.126 1.2-0.126 1.2-0.254 2.42-0.0812 0.789-0.162 1.58-0.246 2.39-0.293 2.18-0.737 4.24-1.32 6.36h-2c-0.33 2.97-0.66 5.94-1 9h-4c-0.33 2.97-0.66 5.94-1 9h-4c0.0206 0.949 0.0412 1.9 0.0625 2.88-0.0625 3.13-0.0625 3.13-1.06 5.12h-3c-0.33 2.97-0.66 5.94-1 9h-4v5h-4v4c-1.32 0.33-2.64 0.66-4 1-0.33 1.32-0.66 2.64-1 4h-4v4h-4c-0.33 1.32-0.66 2.64-1 4h-3v4h-5c-0.33 1.65-0.66 3.3-1 5h-4v4h-4v4h-5v4c-2.97 0.33-5.94 0.66-9 1v4c-2.64 0.33-5.28 0.66-8 1-0.33 0.99-0.66 1.98-1 3-2.97 0.33-5.94 0.66-9 1v4h-9v4c-4.29 0.33-8.58 0.66-13 1v4h-22v4c-25.7 0.759-51.4 1.15-77.1 1.13-4.74-0.0026-9.47 7.47e-4 -14.2 0.00324-8.26 0.00357-16.5 0.00353-24.8 9.53e-4 -12.3-0.00382-24.6-0.00183-36.8 0.00121-21.9 0.00524-43.9 0.00482-65.8 0.00192-19.2-0.00252-38.4-0.00317-57.6-0.00198-1.28 7.64e-5 -2.56 1.53e-4 -3.87 2.31e-4 -5.19 3.11e-4 -10.4 6.3e-4 -15.6 9.6e-4 -36.2 0.00227-72.4 0.00269-109-0.00106-0.68-7.02e-5 -1.36-1.4e-4 -2.06-2.13e-4 -11-0.00114-22.1-0.00236-33.1-0.00359-43.8-0.00485-87.6-0.00463-131 2.31e-4 -11 0.00122-22.1 0.00243-33.1 0.00357-0.68 7.04e-5 -1.36 1.41e-4 -2.06 2.13e-4 -36.8 0.00379-73.6 0.00294-110 6.02e-4 -5.18-3.21e-4 -10.4-6.34e-4 -15.5-9.43e-4 -1.91-1.19e-4 -1.91-1.19e-4 -3.87-2.4e-4 -19.2-0.00113-38.4 1.83e-4 -57.5 0.00272-21.8 0.00287-43.7 0.00212-65.5-0.00328-11.1-0.00266-22.2-0.00379-33.4-3.51e-4 -86.8 0.0253-86.8 0.0253-122-1.13v-3c-6.93-0.33-13.9-0.66-21-1v-4c-0.592 0.0116-1.18 0.0232-1.79 0.0352-4.21 0.0481-8.1 0.0249-12.2-1.04v-3l-13-1v-4h-8v-5h-10v-4l-8-1-1-3c-2.02-0.733-2.02-0.733-4-1v-4h-9v-5h-4v-4h-4v-4h-5c-0.33-1.32-0.66-2.64-1-4h-4v-4l-5-1v-3c-1.32-0.33-2.64-0.66-4-1v-4h-4c-0.33-1.32-0.66-2.64-1-4-1.32-0.33-2.64-0.66-4-1v-4h-4v-5h-4c-0.33-2.64-0.66-5.28-1-8h-4v-5h-4v-3c-0.66-0.33-1.32-0.66-2-1h2c-0.33-1.32-0.66-2.64-1-4-1.32-0.33-2.64-0.66-4-1v-8h-4c-0.33-2.97-0.66-5.94-1-9-1.32-0.33-2.64-0.66-4-1-1.11-3.33-0.845-5.62 0-9h-4c-0.634-4.04-1.12-7.91-1-12-0.99-0.33-1.98-0.66-3-1l-1-7h-1l1-10h-4c-1.88-5.64-1.53-12.3 0-18h-4c-1.22-2.44-1.13-4-1.13-6.72-0.00315-0.982-0.0063-1.96-0.00955-2.97 0.00202-1.06 0.00405-2.13 0.00613-3.23-0.00144-1.64-0.00144-1.64-0.0029-3.31-6.82e-4 -2.32 0.00117-4.63 0.00534-6.95 0.00533-3.54 6.5e-5 -7.08-0.00635-10.6 6.61e-4 -2.25 0.00194-4.5 0.00391-6.75-0.00202-1.06-0.00405-2.11-0.00613-3.2 0.0154-4.86 0.111-9.47 1.14-14.3h3l-0.0352-3.29c-0.00939-1.45-0.0185-2.89-0.0273-4.34l-0.0254-2.16c-0.0192-4.19 0.261-8.09 1.09-12.2h3c0.66-5.94 1.32-11.9 2-18h3c0.33-2.97 0.66-5.94 1-9h3c0.144-1.24 0.289-2.48 0.438-3.75 0.349-2.82 0.766-5.52 1.56-8.25h3c0.33-2.97 0.66-5.94 1-9h4v-5h4c0.33-2.64 0.66-5.28 1-8h3c0.33-2.97 0.66-5.94 1-9h5v-5h4v-4h4c0.33-1.65 0.66-3.3 1-5h4v-4h4c0.33-1.65 0.66-3.3 1-5h3v-4h5c0.33-1.65 0.66-3.3 1-5h3c0.33-1.32 0.66-2.64 1-4h5v-4h3c0.33-1.65 0.66-3.3 1-5h4v-4c2.64-0.33 5.28-0.66 8-1 0.33-1.32 0.66-2.64 1-4h4v-4h5v-4l8-1c0.33-1.32 0.66-2.64 1-4h9v-4l12-1 1-4h13v-4l17-1 1-3c6.9-0.906 13.6-1.12 20.6-1.06l3.06 0.0137c2.46 0.0117 4.92 0.028 7.38 0.0488v-4h35v4h30c0.33-2.64 0.66-5.28 1-8h-3c-1.67-5.08-2.32-9.64-2.25-15 0.00798-1.09 0.00798-1.09 0.0161-2.21 0.124-7.28 0.616-14.7 2.23-21.8 0.66-0.33 1.32-0.66 2-1 0.433-3.14 0.433-3.14 0.562-6.81 0.394-7.76 0.394-7.76 1.44-11.2h3l-0.0352-2.7c-0.0135-1.76-0.0135-1.76-0.0273-3.55l-0.0352-3.52c0.0798-2.64 0.311-4.73 1.1-7.23h4l-0.0352-1.83-0.0273-2.42c-0.0174-1.18-0.0174-1.18-0.0352-2.39 0.0938-2.27 0.465-4.19 1.1-6.36h4c0.33-2.97 0.66-5.94 1-9 0.99-0.33 1.98-0.66 3-1 0.372-1.32 0.706-2.66 1-4 0.66-0.33 1.32-0.66 2-1 0.685-1.89 0.685-1.89 1.12-4.06 0.168-0.733 0.335-1.47 0.508-2.22 0.121-0.566 0.242-1.13 0.367-1.71h4c0.33-2.64 0.66-5.28 1-8 0.99-0.33 1.98-0.66 3-1 0.165-0.66 0.33-1.32 0.5-2 0.165-0.66 0.33-1.32 0.5-2 0.99-0.33 1.98-0.66 3-1 1.21-2 1.21-2 2-4h3c0.33-2.64 0.66-5.28 1-8h4c0.33-1.65 0.66-3.3 1-5h4v-4h5v-4c0.99-0.33 1.98-0.66 3-1 0.733-2.02 0.733-2.02 1-4h4v-3c2.64-0.33 5.28-0.66 8-1 0.103-0.639 0.206-1.28 0.312-1.94 0.227-0.681 0.454-1.36 0.688-2.06 0.99-0.33 1.98-0.66 3-1 0.33-0.99 0.66-1.98 1-3 1.33-0.333 2.67-0.667 4-1 0.33-0.99 0.66-1.98 1-3 2.97-0.33 5.94-0.66 9-1v-4c2.64-0.33 5.28-0.66 8-1 0.33-0.99 0.66-1.98 1-3 2.05-0.706 4.06-1.01 6.19-1.38 0.598-0.206 1.2-0.413 1.81-0.625 0.33-0.99 0.66-1.98 1-3 3.96-0.33 7.92-0.66 12-1 0.33-0.99 0.66-1.98 1-3l21-2c0.33-0.99 0.66-1.98 1-3h62v3c8.58 0.66 17.2 1.32 26 2 0.33 0.99 0.66 1.98 1 3 2.97 0.33 5.94 0.66 9 1v4l1.83-0.0352c0.799-0.00902 1.6-0.018 2.42-0.0273 0.789-0.0116 1.58-0.0232 2.39-0.0352 2.27 0.0938 4.19 0.465 6.36 1.1v4h9v4h5v3c2.64 0.66 5.28 1.32 8 2v4h5c0.33 0.99 0.66 1.98 1 3 2 1.21 2 1.21 4 2v2c2.97 0.33 5.94 0.66 9 1 0.33 1.65 0.66 3.3 1 5h2v4h5v4h4v4c1.32 0.33 2.64 0.66 4 1v4h5v4c1.32 0.33 2.64 0.66 4 1v6c2.47 0.99 2.47 0.99 5 2v5h4v7c1.98 0.66 3.96 1.32 6 2v7c0.99 0.33 1.98 0.66 3 1 0.33 1.65 0.66 3.3 1 5 0.99 0.33 1.98 0.66 3 1 0.33 3.63 0.66 7.26 1 11 1.32 0.33 2.64 0.66 4 1v4c1.32 0.33 2.64 0.66 4 1 0.33 2.64 0.66 5.28 1 8h3c0.66-1.32 1.32-2.64 2-4h2c0.33-2.31 0.66-4.62 1-7h-3c-1.9-7.21-2.3-13.9-2.25-21.3-0.00773-1.05-0.0155-2.1-0.0234-3.19 0.0181-7.34 0.857-14.3 2.27-21.5h3c-0.0116-0.964-0.0232-1.93-0.0352-2.92-0.0135-1.89-0.0135-1.89-0.0273-3.83-0.0116-1.25-0.0232-2.51-0.0352-3.8 0.0774-2.74 0.27-4.87 1.1-7.45h3c-0.0232-0.892-0.0464-1.78-0.0703-2.7-0.0271-1.76-0.0271-1.76-0.0547-3.55l-0.0703-3.52c0.186-3.08 0.478-4.71 2.2-7.23 0.66-0.33 1.32-0.66 2-1 0.692-2.81 0.692-2.81 1.12-6.06 0.251-1.66 0.251-1.66 0.508-3.35 0.121-0.855 0.242-1.71 0.367-2.59h4l-0.0352-2.08c-0.0135-1.35-0.0135-1.35-0.0273-2.73-0.0116-0.893-0.0232-1.79-0.0352-2.71 0.0977-2.48 0.0977-2.48 1.1-5.48 0.66-0.33 1.32-0.66 2-1 0.685-1.89 0.685-1.89 1.12-4.06 0.251-1.1 0.251-1.1 0.508-2.22 0.121-0.566 0.242-1.13 0.367-1.71h3c0.33-2.97 0.66-5.94 1-9h3c0.66-2.97 1.32-5.94 2-9h4v-5h3c0.33-2.64 0.66-5.28 1-8h4c0.33-2.97 0.66-5.94 1-9l3-1c0.33-0.66 0.66-1.32 1-2 1-2 1-2 4-3 0.33-0.99 0.66-1.98 1-3l3-1c0.692-1.85 0.692-1.85 1-4 0.375-2.19 0.375-2.19 1-4l3-1c0.33-0.99 0.66-1.98 1-3h3c0.33-1.65 0.66-3.3 1-5l3-1c0.33-0.99 0.66-1.98 1-3 2.06-0.688 2.06-0.688 4-1 0.33-1.32 0.66-2.64 1-4h4c0.33-2.64 0.66-5.28 1-8h3c0.33-1.65 0.66-3.3 1-5 1.11-0.0825 2.23-0.165 3.38-0.25 1.2-0.248 2.39-0.495 3.62-0.75 1.23-1.95 1.23-1.95 2-4 1.33-0.362 2.66-0.697 4-1 0.33-0.99 0.66-1.98 1-3h3v-4h4c0.33-1.65 0.66-3.3 1-5 0.598-0.103 1.2-0.206 1.81-0.312 2.25-0.515 2.25-0.515 3.62-2.19 1.56-1.5 1.56-1.5 3.88-1.75 3.19-0.889 3.63-1.74 5.56-4.31 1.5-1.91 1.5-1.91 3.12-3.44 3.88-0.438 3.88-0.438 7 0 0.33-1.32 0.66-2.64 1-4h5c0.33-1.65 0.66-3.3 1-5h7c0.33-1.32 0.66-2.64 1-4l8-1c0.33-1.32 0.66-2.64 1-4h8c0.33-1.32 0.66-2.64 1-4 4.29-0.33 8.58-0.66 13-1 0.33-1.32 0.66-2.64 1-4h7c0.33-1.32 0.66-2.64 1-4 0.904-0.0606 1.81-0.121 2.74-0.184 1.18-0.0838 2.36-0.168 3.57-0.254 1.76-0.122 1.76-0.122 3.55-0.246 3.16-0.203 3.16-0.203 6.14-1.32 0.33-0.66 0.66-1.32 1-2 4.35-1.32 8.81-1.11 13.3-1.06 0.741 0.00451 1.48 0.00902 2.24 0.0137 1.81 0.0117 3.63 0.0296 5.44 0.0488 0.33-1.32 0.66-2.64 1-4 1.22-0.0251 2.44-0.0501 3.7-0.0759 4.53-0.0942 9.06-0.194 13.6-0.296 1.96-0.0433 3.92-0.085 5.88-0.125 2.82-0.0578 5.64-0.121 8.46-0.186 1.31-0.0251 1.31-0.0251 2.66-0.0506 0.821-0.0199 1.64-0.0399 2.49-0.0604 1.08-0.0233 1.08-0.0233 2.18-0.0471 2.14-0.166 4-0.466 6.04-1.16 0.33-0.66 0.66-1.32 1-2zm-632 348 1 2zm1020 136 1 2zm1 2 1 2z" fill="#FBFCFE"/>
<path transform="translate(960)" d="m0 0h115c0.33 0.66 0.66 1.32 1 2 1.89 0.418 1.89 0.418 4.15 0.527 0.84 0.0703 1.68 0.141 2.55 0.213 1.78 0.131 3.56 0.259 5.34 0.383 0.843 0.0715 1.69 0.143 2.55 0.217 0.774 0.0553 1.55 0.111 2.35 0.168 2.51 0.598 3.3 1.67 5.07 3.49 2.56 0.3 4.94 0.466 7.5 0.5 4.65 0.062 7.17 0.112 10.5 3.5 3.23 0.576 6.38 0.902 9.64 1.17 1.8 0.184 3.58 0.498 5.36 0.828 0.66 0.99 1.32 1.98 2 3 2.59 0.471 2.59 0.471 5.5 0.5 2.97 0.0938 2.97 0.0938 5.5 0.5 0.66 0.99 1.32 1.98 2 3 2.59 0.509 2.59 0.509 5.5 0.562 5.29 0.23 5.29 0.23 7.5 2.44 0.33 0.99 0.66 1.98 1 3h11c0.33 0.66 0.66 1.32 1 2 2.08 0.834 2.08 0.834 4.5 1.5 2.47 0.719 2.47 0.719 4.5 1.5 0.33 0.66 0.66 1.32 1 2 1.82 0.832 1.82 0.832 3.94 1.5 2.77 0.924 3.95 1.39 6.06 3.5 2.66 0.565 5.29 0.738 8 1v2c0.849 0.398 0.849 0.398 1.71 0.805 0.733 0.353 1.47 0.706 2.22 1.07 1.1 0.522 1.1 0.522 2.21 1.05 1.85 1.07 1.85 1.07 2.85 3.07 2.13 0.467 2.13 0.467 4.56 0.625 0.826 0.0748 1.65 0.15 2.5 0.227 0.638 0.049 1.28 0.098 1.93 0.148 0.33 0.99 0.66 1.98 1 3 1.99 1.02 3.99 2.01 6 3 1.35 0.999 2.68 2.02 4 3.06 3.2 2.48 6.03 3.94 10 4.94v3c4.95 0.495 4.95 0.495 10 1-0.33 0.66-0.66 1.32-1 2 3.69 4.24 6.5 5.86 12 7h2v4c0.639 0.103 1.28 0.206 1.94 0.312 0.681 0.227 1.36 0.454 2.06 0.688 0.33 0.99 0.66 1.98 1 3 2.02 0.733 2.02 0.733 4 1v4h9v3c0.619 0.248 1.24 0.495 1.88 0.75 2.12 1.25 2.12 1.25 3 3.06 1.35 2.62 3.19 3.96 5.48 5.77 2.36 2.04 4.28 4.39 6.27 6.78 2.29 2.74 4.32 5.13 7.56 6.7 1.81 0.938 1.81 0.938 2.81 3.94 1.13 0.248 2.27 0.495 3.44 0.75 1.18 0.412 2.35 0.825 3.56 1.25 1.12 3.44 1.12 3.44 2 7 2.51 1.83 2.51 1.83 5 3v2c0.99 0.33 1.98 0.66 3 1 0.33 0.99 0.66 1.98 1 3 2.02 0.733 2.02 0.733 4 1v3c1.31 1.35 2.65 2.69 4 4v2h5v4c0.99 0.33 1.98 0.66 3 1 0.33 0.99 0.66 1.98 1 3 2 1.21 2 1.21 4 2v3c1.72 3.25 1.72 3.25 5 4v5h4c0.124 0.928 0.124 0.928 0.25 1.88 0.371 1.05 0.371 1.05 0.75 2.12 0.66 0.309 1.32 0.619 2 0.938 0.66 0.351 1.32 0.701 2 1.06 0.373 1.66 0.707 3.33 1 5l3 2v4c0.33 0.99 0.66 1.98 1 3 2.02 0.733 2.02 0.733 4 1v4c1.32 0.33 2.64 0.66 4 1-0.33 2.64-0.66 5.28-1 8 1.98 0.33 3.96 0.66 6 1-0.33 0.99-0.66 1.98-1 3 0.389 2.14 0.389 2.14 1 4 1.32 0.33 2.64 0.66 4 1v8c1.32 0.33 2.64 0.66 4 1 0.33 2.64 0.66 5.28 1 8 1.32 0.33 2.64 0.66 4 1v8c1.32 0.33 2.64 0.66 4 1v7c1.98 0.66 3.96 1.32 6 2v12c0.99 0.33 1.98 0.66 3 1v8c1.32 0.33 2.64 0.66 4 1 0.33 3.96 0.66 7.92 1 12 1.32 0.33 2.64 0.66 4 1v12c1.32 0.66 2.64 1.32 4 2 0.33 5.94 0.66 11.9 1 18h4c-0.33 6.6-0.66 13.2-1 20 1.65 0.33 3.3 0.66 5 1-0.0116 0.883-0.0232 1.77-0.0352 2.68-0.0565 7.51 0.182 14.9 1.04 22.3 1.32 0.33 2.64 0.66 4 1-0.33 29.7-0.66 59.4-1 90h-3c-0.33 2.64-0.66 5.28-1 8h-3c-0.33 3.3-0.66 6.6-1 10 2.97 0.99 5.94 1.98 9 3v4h5v4c2.64 0.33 5.28 0.66 8 1v4h5v4c2.97 0.33 5.94 0.66 9 1v4h5v4h8v5h4v4h6v4h3v5h5v4h4v5h5v4h4v5h4v4h5c-0.0206 0.742-0.0412 1.48-0.0625 2.25 0.0558 2.45 0.369 4.41 1.06 6.75h4v4h5v5h3c-0.0206 0.742-0.0412 1.48-0.0625 2.25 0.0558 2.45 0.369 4.41 1.06 6.75h4v5h4c-0.186 0.784-0.371 1.57-0.562 2.38-0.697 2.6-0.697 2.6 0.562 4.62 1.64 0.722 3.31 1.39 5 2v8h4v9h4c-0.33 1.32-0.66 2.64-1 4h2v5h4v9h4v10c1.98 0.66 3.96 1.32 6 2 0.0427 1.67 0.0406 3.33 0 5-0.33 0.33-0.66 0.66-1 1 0.287 2.01 0.619 4.01 1 6 0.99 0.33 1.98 0.66 3 1 0.0427 1.67 0.0406 3.33 0 5-0.33 0.33-0.66 0.66-1 1 0.66 2.31 1.32 4.62 2 7 1.32 0.33 2.64 0.66 4 1v16c1.32 0.33 2.64 0.66 4 1v21c1.32 0.66 2.64 1.32 4 2 0.0232 8.08 0.041 16.2 0.0518 24.2 0.0052 3.75 0.0123 7.5 0.0236 11.3 0.0109 3.62 0.0169 7.25 0.0194 10.9 0.00184 1.38 0.00542 2.76 0.0109 4.13 0.0262 6.93-0.0112 13.7-1.11 20.5h-2l-0.184 2.86c-0.526 8.05-1.11 16.1-1.82 24.1h-3c-0.33 6.93-0.66 13.9-1 21h-3l-0.184 2.55c-0.126 1.64-0.126 1.64-0.254 3.32-0.0812 1.09-0.162 2.18-0.246 3.3-0.316 2.82-0.316 2.82-1.32 4.82h-2c-0.33 4.29-0.66 8.58-1 13h-4c-0.33 2.97-0.66 5.94-1 9h-4c0.0206 1.05 0.0412 2.1 0.0625 3.19-0.0515 3.14-0.328 5.78-1.06 8.81h-3v5h-4c-0.33 2.97-0.66 5.94-1 9h-4c-0.33 2.97-0.66 5.94-1 9h-4v5h-4v7c-1.65 0.33-3.3 0.66-5 1v5h-3c0.0206 1.13 0.0412 2.27 0.0625 3.44-0.0625 3.56-0.0625 3.56-1.06 4.56-1.67 0.0406-3.33 0.0427-5 0v5h-4v4h-4c-0.33 1.65-0.66 3.3-1 5h-4v4h-4v5h-4v4h-5v5h-4v4h-4v4h-5c-0.33 1.65-0.66 3.3-1 5h-4v4c-1.32 0.33-2.64 0.66-4 1-0.33 1.32-0.66 2.64-1 4h-4v4c-2.64 0.33-5.28 0.66-8 1-0.33 1.32-0.66 2.64-1 4h-4v4h-8v4c-1.65 0.33-3.3 0.66-5 1-0.33 1.32-0.66 2.64-1 4h-8v4h-9v4c-2.97 0.33-5.94 0.66-9 1v3c-2.64 0.33-5.28 0.66-8 1v4h-10v4h-13v4c-2.97 0.33-5.94 0.66-9 1v4h-18v4c-4.29 0.33-8.58 0.66-13 1v4h-1063v-4l-17-1v-4h-14v-4l-3.69 0.0625c-3.23 0.00574-6.16-0.275-9.31-1.06v-4h-9v-4l-3.69 0.0625c-3.23 0.00574-6.16-0.275-9.31-1.06v-4h-8v-3l-10-1v-4h-9v-4h-9v-4l-8-1v-4h-5v-4c-2.97-0.33-5.94-0.66-9-1v-4h-8v-4h-5v-5h-5v-4l-5-1v-3c-2.31-0.33-4.62-0.66-7-1v-4h-5l-1-4c-1.32-0.33-2.64-0.66-4-1v-4h-4v-4l-5-1v-4h-4v-4l-5-1v-4h-4v-4h-4l-1-4c-1.32-0.33-2.64-0.66-4-1v-4h-4v-5h-4l-1-8h-4v-5h-5v-5h-4v-8h-4l-1-9h-4v-5h-4l-1-8h-4c-1.1-3.29-0.8-4.71 0-8h-4c-1.11-3.33-0.845-5.62 0-9h-5c-1.11-3.33-0.845-5.62 0-9h-4v-9h-4c-2.3-3.45-2.14-4.23-1.62-8.19l0.336-2.73 0.289-2.08h-4v-14h-4c-0.593-4.38-1.14-8.58-1-13h-4c-1.16-3.47-1.13-6.22-1.12-9.88l-0.00781-3.68c0.114-2.96 0.446-5.58 1.13-8.45h-4c-1.15-9.41-1.15-9.41-1-14h-4v-101h3l0.184-1.79c0.437-4.12 0.903-8.16 1.82-12.2h3c-0.0116-0.736-0.0232-1.47-0.0352-2.23-0.00902-0.976-0.018-1.95-0.0273-2.96l-0.0352-2.92c0.0928-2.75 0.477-5.22 1.1-7.89h4l-0.0352-1.79c-0.0481-4.21-0.0249-8.1 1.04-12.2h2l-0.125-3.69c-0.0125-3.53 0.525-6.11 2.12-9.31h3l1-9 4-1-0.0625-3.19c0.0515-3.14 0.328-5.78 1.06-8.81h3l1-9h4l1-9h4v-5h4l1-9h3l1-8 4-1 1-4h3l1-9c0.99-0.33 1.98-0.66 3-1l2-7c0.99-0.33 1.98-0.66 3-1 0.733-2.02 0.733-2.02 1-4h4v-5h4l1-8h4v-5h5v-4h4v-4c0.99-0.33 1.98-0.66 3-1 1.21-2 1.21-2 2-4h3l1-4h4v-4h4l1-5h4v-4h4v-4h6v-5h4v-4l8-1v-4h5v-4c0.639-0.103 1.28-0.206 1.94-0.312l2.06-0.688 1-3 8-1v-4h5v-4c2.97-0.33 5.94-0.66 9-1v-4h8v-4c2.97-0.33 5.94-0.66 9-1v-4h9v-4h10v-5h12v-4c2.97-0.33 5.94-0.66 9-1l1-3c3.54-1.51 7.47-1.1 11.2-1.06l3.83 0.0273 2.92 0.0352v-4c6.93-0.33 13.9-0.66 21-1v-3c3.96-0.33 7.92-0.66 12-1 0.33-1.65 0.66-3.3 1-5 0.33-0.99 0.66-1.98 1-3h3l-0.0625-2.75c0.0523-2.72 0.292-4.68 1.06-7.25 0.144-0.722 0.289-1.44 0.438-2.19 0.186-0.598 0.371-1.2 0.562-1.81 0.66-0.33 1.32-0.66 2-1 0.685-1.89 0.685-1.89 1.12-4.06l0.508-2.22c0.121-0.566 0.242-1.13 0.367-1.71h3c0.33-2.97 0.66-5.94 1-9h4l0.375-3.94c0.211-2.21 0.211-2.21 0.625-4.06 0.66-0.33 1.32-0.66 2-1 0.731-2.31 1.4-4.65 2-7h3c0.66-2.97 1.32-5.94 2-9h3c0.33-1.65 0.66-3.3 1-5h3l0.332-1.71c0.159-0.733 0.317-1.47 0.48-2.22 0.226-1.1 0.226-1.1 0.457-2.21 0.241-0.61 0.482-1.22 0.73-1.85 0.99-0.33 1.98-0.66 3-1 0.165-0.66 0.33-1.32 0.5-2 0.165-0.66 0.33-1.32 0.5-2 0.99-0.33 1.98-0.66 3-1 0.733-2.02 0.733-2.02 1-4h3c0.66-2.64 1.32-5.28 2-8h3c0.33-1.65 0.66-3.3 1-5h4v-4h4c0.33-1.65 0.66-3.3 1-5 0.99-0.33 1.98-0.66 3-1 0.33-0.99 0.66-1.98 1-3 2.06-0.688 2.06-0.688 4-1 0.33-1.32 0.66-2.64 1-4h4v-4h5v-4h4c0.33-1.65 0.66-3.3 1-5 0.99-0.33 1.98-0.66 3-1 0.33-0.99 0.66-1.98 1-3h3c0.33-1.65 0.66-3.3 1-5 0.639-0.103 1.28-0.206 1.94-0.312l2.06-0.688c0.33-0.99 0.66-1.98 1-3 2.33-0.667 4.67-1.33 7-2 0.33-0.99 0.66-1.98 1-3 1.33-0.333 2.67-0.667 4-1 0.33-0.99 0.66-1.98 1-3 0.99-0.33 1.98-0.66 3-1 0.33-0.99 0.66-1.98 1-3 2.31-0.71 4.58-1.01 6.97-1.38l2.03-0.625c0.33-0.99 0.66-1.98 1-3h4v-4h8c0.33-1.65 0.66-3.3 1-5 2.31-0.33 4.62-0.66 7-1 0.33-0.99 0.66-1.98 1-3 2.05-0.706 4.06-1.01 6.19-1.38l1.81-0.625c0.33-0.99 0.66-1.98 1-3 2.97-0.33 5.94-0.66 9-1 0.33-0.99 0.66-1.98 1-3l12-1 1-4 6.15-0.586c0.61-0.137 1.22-0.273 1.85-0.414l1-2c3.09-0.647 6.18-1.02 9.31-1.44l2.69-0.562 1-2c5.68-1.01 11.2-1.12 17-1l1-4c0.802-0.0146 1.6-0.0292 2.43-0.0442 3.63-0.0744 7.25-0.171 10.9-0.268l3.83-0.0684c1.21-0.0354 2.42-0.0709 3.66-0.107 1.12-0.0262 2.23-0.0524 3.38-0.0793 2.84-0.115 2.84-0.115 4.06-1.94 2.75-2.33 5.21-1.87 8.76-1.87 0.708-0.00365 1.42-0.0073 2.14-0.0111 2.34-0.00811 4.68 0.00551 7.02 0.0201 1.63 5.19e-4 3.25 9.32e-7 4.88-0.00151 3.41 8.97e-5 6.81 0.0105 10.2 0.0286 4.37 0.0227 8.74 0.0232 13.1 0.0165 3.36-0.00334 6.71 0.00329 10.1 0.0131 1.61 0.00385 3.22 5e-3 4.83 0.00341 2.25-3.7e-4 4.5 0.0122 6.75 0.0285 1.28 0.00461 2.56 0.00921 3.88 0.014 3.11 0.261 3.11 0.261 6.11 2.26v2c0.863-0.0157 1.73-0.0314 2.61-0.0476 3.2-0.0512 6.41-0.0888 9.61-0.117 1.39-0.0151 2.77-0.0355 4.16-0.0615 1.99-0.0364 3.99-0.0518 5.98-0.0667 1.8-0.0236 1.8-0.0236 3.63-0.0476 3.37 0.383 3.86 0.906 6 3.34 1.97 0.556 1.97 0.556 4.12 0.66 0.789 0.0715 1.58 0.143 2.39 0.217 0.82 0.0612 1.64 0.122 2.48 0.186 1.63 0.129 3.25 0.266 4.88 0.41 0.719 0.0542 1.44 0.108 2.18 0.164 1.95 0.363 1.95 0.363 4.95 2.36 2.28 0.454 2.28 0.454 4.69 0.625l2.45 0.227c0.922 0.0735 0.922 0.0735 1.86 0.148 0.33 0.99 0.66 1.98 1 3 3.96 0.66 7.92 1.32 12 2v3c2.83 0.334 2.83 0.334 6 0 2.19-1.94 2.19-1.94 4-4h3c0.33-2.31 0.66-4.62 1-7h3c0.33-1.65 0.66-3.3 1-5h4c0.33-2.97 0.66-5.94 1-9h4c0.33-1.32 0.66-2.64 1-4h3c0.33-1.65 0.66-3.3 1-5h3c0.289-0.804 0.578-1.61 0.875-2.44 1.12-2.56 1.12-2.56 3.12-3.56 0.731-2.31 1.4-4.65 2-7h4c0.33-1.65 0.66-3.3 1-5h3c0.103-0.598 0.206-1.2 0.312-1.81 0.785-2.5 1.79-3.44 3.69-5.19 0.33-0.66 0.66-1.32 1-2h3c0.33-1.32 0.66-2.64 1-4h4c0.33-1.65 0.66-3.3 1-5h3c0.33-1.32 0.66-2.64 1-4h3c0.33-1.32 0.66-2.64 1-4 1.32-0.33 2.64-0.66 4-1 0.33-1.32 0.66-2.64 1-4h4c0.33-1.32 0.66-2.64 1-4h4c0.33-1.32 0.66-2.64 1-4 2.97-0.495 2.97-0.495 6-1 0.33-1.32 0.66-2.64 1-4h4c0.33-1.32 0.66-2.64 1-4h4c0.33-1.65 0.66-3.3 1-5h7c0.33-1.32 0.66-2.64 1-4h4c0.33-1.65 0.66-3.3 1-5h4c0.33-1.32 0.66-2.64 1-4 1.11-0.0825 2.23-0.165 3.38-0.25 1.2-0.248 2.39-0.495 3.62-0.75 0.684-1.32 1.35-2.66 2-4 2.31-0.731 4.65-1.4 7-2 0.33-0.66 0.66-1.32 1-2l3-1c0.66-0.99 1.32-1.98 2-3 1.95-0.512 1.95-0.512 4.12-0.688 1.28-0.103 2.56-0.206 3.88-0.312 0.33-1.32 0.66-2.64 1-4h8c0.33-1.32 0.66-2.64 1-4 4.46-0.495 4.46-0.495 9-1v-4c1.11-0.103 2.23-0.206 3.38-0.312 1.2-0.227 2.39-0.454 3.62-0.688 0.66-0.99 1.32-1.98 2-3 2.02-0.371 2.02-0.371 4.38-0.438 3.8-0.206 3.8-0.206 6.69-2.62 1.94-1.94 1.94-1.94 3.95-2.2 2 0.0105 3.99 0.129 5.99 0.262 0.186-0.639 0.371-1.28 0.562-1.94 0.712-1.02 0.712-1.02 1.44-2.06 2.33-0.339 4.67-0.672 7-1 0.694-0.986 0.694-0.986 1.4-1.99 1.6-2.01 1.6-2.01 4.04-2.55 0.884-0.0284 1.77-0.0567 2.68-0.0859 2.62-0.0594 2.62-0.0594 4.88-0.375 0.33-0.66 0.66-1.32 1-2 1.96-0.577 3.94-1.06 5.94-1.5 4.51-0.852 4.51-0.852 8.06-3.5 2.82-0.195 2.82-0.195 6.12-0.125l3.32 0.0547c0.843 0.0232 1.69 0.0464 2.55 0.0703 0.144-0.639 0.289-1.28 0.438-1.94 0.562-2.06 0.562-2.06 1.56-3.06 1.42-0.0865 2.84-0.107 4.25-0.0977 1.28 0.00483 1.28 0.00483 2.59 0.00977 0.898 0.00838 1.8 0.0168 2.72 0.0254 0.902 0.00451 1.8 0.00902 2.73 0.0137 2.24 0.0118 4.47 0.0283 6.71 0.0488 0.267-0.647 0.535-1.29 0.81-1.96 0.393-0.673 0.785-1.35 1.19-2.04 3.04-0.609 3.04-0.609 6.62-0.75 1.78-0.0851 1.78-0.0851 3.6-0.172 0.915-0.0258 1.83-0.0516 2.77-0.0781v-3zm-55 17v1h6v-1h-6zm82 50c-0.33 0.66-0.66 1.32-1 2-0.863 0.0146-1.73 0.0292-2.61 0.0442-3.2 0.0611-6.41 0.135-9.61 0.218-1.39 0.0332-2.77 0.0613-4.16 0.084-1.99 0.0336-3.99 0.0874-5.98 0.142-1.2 0.0262-2.4 0.0524-3.63 0.0793-3.31 0.476-3.9 1.01-6 3.43-3.23 0.544-6.38 0.854-9.64 1.08-2.24 0.179-2.24 0.179-5.36 0.916-0.66 1.32-1.32 2.64-2 4h-15c-0.66 1.32-1.32 2.64-2 4l-3.12-0.125c-3.79 0.122-6.43 0.569-9.88 2.12-0.33 0.99-0.66 1.98-1 3h-11c-0.66 1.32-1.32 2.64-2 4-1.07-0.0825-2.14-0.165-3.25-0.25-4.47 0.298-4.81 1.13-7.75 4.25-2.32 0.719-4.65 1.39-7 2-0.66 0.66-1.32 1.32-2 2-1.15 0.309-2.31 0.619-3.5 0.938-3.74 0.73-3.74 0.73-5.5 4.06-1.52 0.495-1.52 0.495-3.06 1-1.45 0.495-1.45 0.495-2.94 1-0.33 0.99-0.66 1.98-1 3h-7c-0.247 0.639-0.495 1.28-0.75 1.94-1.25 2.06-1.25 2.06-3.38 2.81-0.619 0.0825-1.24 0.165-1.88 0.25-0.33 1.32-0.66 2.64-1 4h-7c-0.33 1.32-0.66 2.64-1 4h-4c-0.33 1.65-0.66 3.3-1 5h-8c-0.33 1.32-0.66 2.64-1 4h-3c-0.33 1.32-0.66 2.64-1 4-2.64 0.33-5.28 0.66-8 1-0.33 1.32-0.66 2.64-1 4h-3c-0.33 1.65-0.66 3.3-1 5h-3c-0.33 1.32-0.66 2.64-1 4h-5c-0.33 1.32-0.66 2.64-1 4h-3c-0.33 1.65-0.66 3.3-1 5h-4c-0.33 1.32-0.66 2.64-1 4h-3c-0.33 1.65-0.66 3.3-1 5h-4c-0.33 1.32-0.66 2.64-1 4h-3c-0.33 1.65-0.66 3.3-1 5h-3c-0.33 0.99-0.66 1.98-1 3-2.06 0.688-2.06 0.688-4 1-0.155 0.897-0.155 0.897-0.312 1.81-0.781 2.49-1.84 3.42-3.69 5.19v2h-4l-0.551 1.64c-0.377 1.07-0.377 1.07-0.762 2.17-0.244 0.708-0.487 1.42-0.738 2.14-1.02 2.19-2.24 3.37-3.95 5.04v2h-3c-0.33 1.65-0.66 3.3-1 5h-4c-1.35 2.71-1.07 5.01-1 8h-3c-0.33 1.65-0.66 3.3-1 5-0.639 0.144-1.28 0.289-1.94 0.438-2.04 0.373-2.04 0.373-3.06 1.56-0.0409 2.33-0.0424 4.67 0 7h-3c-0.66 2.97-1.32 5.94-2 9h-3c-0.33 1.65-0.66 3.3-1 5h-2c-1.35 2.71-1.07 5.01-1 8h-4c-1.76 3.09-2 4.23-2 8h-3c-0.289 0.639-0.578 1.28-0.875 1.94-1.12 2.06-1.12 2.06-3.12 3.06-0.33 0.99-0.66 1.98-1 3-2.64 0.33-5.28 0.66-8 1v-4c-2.97-0.33-5.94-0.66-9-1v-3h-7v-2c-1.61-0.742-1.61-0.742-3.25-1.5l-1.83-0.844c-2.21-0.872-2.21-0.872-5.92-0.656v-4h-9v-4h-9v-4c-4.29-0.66-8.58-1.32-13-2v-3c-5.71-0.993-11.2-1.1-17-1-0.33-1.32-0.66-2.64-1-4h-18v-4c-4.33-0.172-8.67-0.336-13-0.5-1.2-0.0477-2.4-0.0954-3.64-0.145-16-0.595-31.9-0.297-47.9 0.145-1.81 0.0484-3.61 0.0965-5.42 0.145-4.36 0.116-8.72 0.235-13.1 0.355-0.33 0.99-0.66 1.98-1 3l-22 2-1 3-12 1-1 4-1.83-0.0352c-0.799-0.00902-1.6-0.018-2.42-0.0273-0.789-0.0116-1.58-0.0232-2.39-0.0352-2.27 0.0938-4.19 0.465-6.36 1.1l-1 4h-8l-1 4h-8l-1 4c-2.02 0.163-4.04 0.326-6.05 0.488-2.34 0.386-2.34 0.386-3.95 3.51-3.12 0.688-3.12 0.688-6 1-0.33 0.99-0.66 1.98-1 3-2.06 0.688-2.06 0.688-4 1v4h-9v4h-4c-0.33 1.65-0.66 3.3-1 5h-4c-0.33 0.99-0.66 1.98-1 3-3.56 1.19-3.56 1.19-7 2-0.33 1.32-0.66 2.64-1 4h-3v4h-5c-0.33 1.32-0.66 2.64-1 4-1.32 0.33-2.64 0.66-4 1v4h-4c-0.66 2.97-1.32 5.94-2 9h-3c-0.33 0.99-0.66 1.98-1 3-0.99 0.33-1.98 0.66-3 1-0.33 1.65-0.66 3.3-1 5h-4c-0.33 1.65-0.66 3.3-1 5h-3c-0.33 2.64-0.66 5.28-1 8-1.32 0.33-2.64 0.66-4 1-0.33 2.64-0.66 5.28-1 8h-2c-0.33 2.97-0.66 5.94-1 9h-5v5h-4c-0.33 2.64-0.66 5.28-1 8h-3c-0.121 0.638-0.242 1.28-0.367 1.93l-0.508 2.5c-0.162 0.824-0.325 1.65-0.492 2.5-0.209 0.682-0.418 1.36-0.633 2.07-0.66 0.33-1.32 0.66-2 1-1.57 4.45-2.23 8.29-2 13h-3c-1.28 2.57-1.33 4.77-1.56 7.62l-0.254 3.04c-0.0606 0.771-0.121 1.54-0.184 2.34h-3c-0.961 2.88-1.11 4.7-1.06 7.69l0.0273 2.45 0.0352 1.86h-3c-0.872 2.99-1.11 5.64-1.06 8.75l0.0273 2.42 0.0352 1.83c-1.32 0.33-2.64 0.66-4 1v4h-22v4c-0.605-0.00524-1.21-0.0105-1.83-0.0159-2.76-0.0209-5.53-0.0338-8.29-0.0466l-2.88-0.0254c-4.78-0.0166-9.29 0.0825-14 1.09v4h-17v4l-2.08-0.0352c-0.901-0.00902-1.8-0.018-2.73-0.0273-0.893-0.0116-1.79-0.0232-2.71-0.0352-2.61-0.0124-2.61-0.0124-5.48 1.1l-1 3c-2.97 0.33-5.94 0.66-9 1v4l-1.86-0.0352c-0.808-0.00902-1.62-0.018-2.45-0.0273-0.801-0.0116-1.6-0.0232-2.43-0.0352-2.43 0.00108-2.43 0.00108-5.26 1.1l-1 3c-2.97 0.33-5.94 0.66-9 1v4h-8v4c-2.97 0.33-5.94 0.66-9 1l-1 3c-2.06 0.688-2.06 0.688-4 1v4c-2.97 0.33-5.94 0.66-9 1v4h-5c-0.33 0.99-0.66 1.98-1 3-2.31 0.33-4.62 0.66-7 1-0.33 1.32-0.66 2.64-1 4-1.32 0.33-2.64 0.66-4 1v4h-4c-0.33 1.32-0.66 2.64-1 4-1.32 0.33-2.64 0.66-4 1v4h-4v4l-5 1v4h-4v4c-1.65 0.33-3.3 0.66-5 1v4h-4v4h-4v5h-5v4h-3c-0.33 1.32-0.66 2.64-1 4-1.32 0.33-2.64 0.66-4 1l-1 8h-4l-1 8c-1.32 0.33-2.64 0.66-4 1v4h-4l-1 9h-3l-1 9h-4l-1 9h-3l-1 9h-3c-0.339 1.42-0.671 2.83-1 4.25l-0.562 2.39c-0.559 2.61-0.559 2.61-0.438 6.36h-3c-1.1 4.41-1.08 8.48-1 13h-3c-1.43 7.41-2.3 14.4-2 22h-3c-1.18 4.62-1.11 9.08-1.06 13.8 0.00451 0.788 0.00902 1.58 0.0137 2.39 0.0117 1.93 0.0296 3.87 0.0488 5.8h-3c-1.23 4.87-1.24 9.71-1.35 14.7-0.0232 0.949-0.0463 1.9-0.0702 2.88-0.0476 2.01-0.0928 4.03-0.136 6.04-0.0662 3.02-0.144 6.03-0.224 9.05-0.22 9.24-0.306 18.4 0.195 27.7 0.0406 0.752 0.0813 1.5 0.123 2.28 0.205 3.82 0.205 3.82 1.46 7.39h4c-0.162 0.656-0.325 1.31-0.492 1.99-0.631 3.74-0.653 7.42-0.633 11.2-0.00387 0.724-0.00773 1.45-0.0117 2.19-0.0678 3.94-0.0678 3.94 1.14 7.62h4c-0.248 0.928-0.248 0.928-0.5 1.88-0.701 4.38-0.577 8.7-0.5 13.1 1.98 0.33 3.96 0.66 6 1l-1 13 5 1v5c-0.66 0.33-1.32 0.66-2 1l1 6c1.98 0.33 3.96 0.66 6 1l-1 8 5 1 1 9h4l-1 8 5 1v5h4l1 8h4v5h4l1 8h5v5h3v5h5v4h4l1 9h4v4h4c0.33 1.65 0.66 3.3 1 5h4v4c0.639 0.103 1.28 0.206 1.94 0.312 0.681 0.227 1.36 0.454 2.06 0.688l1 3 8 1v4h4v5h5v4h4v4c2.97 0.33 5.94 0.66 9 1v3h5v4l8 1v4h6v4h8v4c2.97 0.33 5.94 0.66 9 1v4h9v4c3.16 0.936 5.97 1.11 9.25 1.06 1.34-0.0135 1.34-0.0135 2.7-0.0273 0.675-0.0116 1.35-0.0232 2.05-0.0352v4h12l1 5h13v4h22v4c20.9 1.07 41.7 1.14 62.6 1.13 4.92-0.00257 9.84 7.35e-4 14.8 0.00324 8.6 0.00359 17.2 0.00351 25.8 9.53e-4 12.8-0.0038 25.6-0.00184 38.4 0.00121 22.9 0.00525 45.7 0.00481 68.6 0.00192 20-0.00252 40-0.00317 60-0.00198 1.34 7.75e-5 2.69 1.55e-4 4.03 2.31e-4 5.4 3.11e-4 10.8 6.29e-4 16.2 9.6e-4 15.1 9.17e-4 30.2 0.00149 45.3 0.00179 1.03 2.05e-5 1.03 2.05e-5 2.08 4.14e-5 21.9 4.09e-4 43.8-7.16e-4 65.7-0.00289 0.709-7.02e-5 1.42-1.4e-4 2.15-2.13e-4 11.5-0.00114 23-0.00236 34.5-0.00359 45.6-0.00485 91.2-0.00463 137 2.31e-4 11.5 0.00122 23 0.00243 34.5 0.00357 0.708 7.04e-5 1.42 1.41e-4 2.14 2.13e-4 21.8 0.00216 43.7 0.00307 65.5 0.00264 1.03-2.04e-5 1.03-2.04e-5 2.08-4.12e-5 15.1-3.13e-4 30.2-9.47e-4 45.3-0.00187 5.4-3.29e-4 10.8-6.42e-4 16.2-9.51e-4 1.34-7.74e-5 2.69-1.56e-4 4.03-2.36e-4 20.7-0.00123 41.3-1.9e-5 62 0.0026 22.8 0.00287 45.5 0.00212 68.3-0.00328 12.7-0.00292 25.4-0.00316 38.1 6.46e-4 8.52 0.00227 17 8.05e-4 25.6-0.0035 4.83-0.00235 9.67-0.00326 14.5 4.06e-4 25.6 0.0181 51.2-0.391 76.8-1.13v-4h21v-4c0.592 0.0116 1.18 0.0232 1.79 0.0352 4.21 0.0481 8.1 0.0249 12.2-1.04v-4h13v-4h8c0.33-1.65 0.66-3.3 1-5h9v-4h8c0.33-1.32 0.66-2.64 1-4 2.64-0.33 5.28-0.66 8-1v-4h5v-4c2.97-0.33 5.94-0.66 9-1v-4h4c0.33-0.99 0.66-1.98 1-3 2.06-0.688 2.06-0.688 4-1v-4h8v-4h6v-5h3v-4c1.65-0.33 3.3-0.66 5-1v-4h4v-4h4c1.48-2.96 1.06-5.74 1-9h4c0.33-1.32 0.66-2.64 1-4 1.32-0.33 2.64-0.66 4-1v-4h4c0.124-1.92 0.124-1.92 0.25-3.88 0.262-2.21 0.262-2.21 0.75-4.12 2.06-1.5 2.06-1.5 4-2v-7h5v-5h3c0.33-2.97 0.66-5.94 1-9h3c1.48-2.96 1.06-5.74 1-9h4c0.33-2.97 0.66-5.94 1-9h3c0.33-4.29 0.66-8.58 1-13h3c0.338-2.06 0.67-4.12 1-6.19 0.186-1.15 0.371-2.3 0.562-3.48 0.372-2.84 0.523-5.48 0.438-8.33 1.32-0.33 2.64-0.66 4-1v-20h4v-75h-4v-17c-1.32-0.33-2.64-0.66-4-1-0.857-4.39-1.09-8.53-1-13h-4c-1.29-8.43-1.29-8.43 0-13h-4c-0.33-2.97-0.66-5.94-1-9h-4v-9h-4v-9h-4v-9h-5c-0.33-2.64-0.66-5.28-1-8-0.99-0.33-1.98-0.66-3-1-0.688-2.06-0.688-2.06-1-4h-4c-0.33-2.97-0.66-5.94-1-9h-4v-4h-4v-5h-5v-4h-4v-5h-4c-0.33-1.65-0.66-3.3-1-5h-3v-4h-5v-4h-5v-4h-4v-4h-5v-4c-2.64-0.33-5.28-0.66-8-1v-4h-5v-4h-8v-5h-10v-4h-9v-4c-2.99-0.872-5.64-1.11-8.75-1.06-1.2 0.0135-1.2 0.0135-2.42 0.0273l-1.83 0.0352v-4h-8v-5h-6v-4h-3v-9h3c0.33-6.27 0.66-12.5 1-19h4c0.33-8.25 0.66-16.5 1-25h2c0.33-3.3 0.66-6.6 1-10h1v-78h-1v-9h-3v-27h-5c0.0116-0.88 0.0232-1.76 0.0352-2.67l0.0273-3.52c0.0116-1.15 0.0232-2.3 0.0352-3.48-0.0857-2.93-0.419-5.5-1.1-8.33h-4v-13h-3v-3h-2v-10c-0.99-0.33-1.98-0.66-3-1-0.597-2.76-1-5.16-1-8h-4c-0.33-4.29-0.66-8.58-1-13h-3c-0.33-2.64-0.66-5.28-1-8h-4c-1.13-6.75-1.13-6.75 0-9h-4c0.0206-0.742 0.0412-1.48 0.0625-2.25-0.0558-2.45-0.369-4.41-1.06-6.75h-3v-8h-5c-0.33-1.98-0.66-3.96-1-6h-4v-8h-4c-0.66-1.65-1.32-3.3-2-5h-2c-0.33-2.64-0.66-5.28-1-8h-4c-0.66-1.65-1.32-3.3-2-5h-2c-0.33-1.65-0.66-3.3-1-5h-4c-0.33-2.64-0.66-5.28-1-8-0.99-0.33-1.98-0.66-3-1-0.688-2.06-0.688-2.06-1-4h-4c-0.33-1.32-0.66-2.64-1-4-1.32-0.33-2.64-0.66-4-1v-4h-4v-4c-0.959-0.402-0.959-0.402-1.94-0.812-2.06-1.19-2.06-1.19-3.06-4.19-2-1.21-2-1.21-4-2v-2h-4c-0.268-0.598-0.536-1.2-0.812-1.81-1.08-2.23-1.08-2.23-2.81-3.81-0.454-0.454-0.908-0.908-1.38-1.38v-2h-4c-0.268-0.598-0.536-1.2-0.812-1.81-1.08-2.23-1.08-2.23-2.81-3.81-0.454-0.454-0.908-0.908-1.38-1.38v-2h-4c-0.186-0.619-0.371-1.24-0.562-1.88-2.15-3.18-4.81-3.32-8.44-4.12v-3c-1.65-0.33-3.3-0.66-5-1v-3c-0.554-0.193-1.11-0.387-1.68-0.586-0.724-0.26-1.45-0.521-2.2-0.789-0.719-0.255-1.44-0.51-2.18-0.773-1.95-0.852-1.95-0.852-3.95-2.85h-3v-4h-8c-0.66-1.65-1.32-3.3-2-5h-3c-0.33-0.99-0.66-1.98-1-3-2.64-0.33-5.28-0.66-8-1-0.33-1.32-0.66-2.64-1-4-2.64-0.33-5.28-0.66-8-1-0.33-1.32-0.66-2.64-1-4h-8c-0.33-1.32-0.66-2.64-1-4-1.11-0.103-2.23-0.206-3.38-0.312-1.79-0.34-1.79-0.34-3.62-0.688-0.66-0.99-1.32-1.98-2-3-2.88-0.961-4.7-1.11-7.69-1.06-0.808 0.00902-1.62 0.018-2.45 0.0273-0.615 0.0116-1.23 0.0232-1.86 0.0352-0.33-1.32-0.66-2.64-1-4h-8c-0.33-1.32-0.66-2.64-1-4-3.98-1.33-7.85-1.07-12-1-0.66-1.32-1.32-2.64-2-4h-15c-0.66-1.32-1.32-2.64-2-4-3.56-1.19-6.44-1.1-10.2-1.06-1.27 0.00902-2.54 0.018-3.86 0.0273-0.976 0.0116-1.95 0.0232-2.96 0.0352-0.33-1.32-0.66-2.64-1-4h-34c-0.33-0.99-0.66-1.98-1-3-23.4-0.948-46.6-0.948-70 0zm273 9 1 2zm93 93 1 2zm183 413 1 2zm-1519 6v8h1v-8h-1zm1523 2 1 4zm-1448 223 1 2z" fill="#FAFBFD"/>
<path transform="translate(97,824)" d="m0 0c2.47 0.495 2.47 0.495 5 1v5h4c0.33 2.64 0.66 5.28 1 8h4v5h4c0.33 2.64 0.66 5.28 1 8h5v5h3v5h5v4h4c0.495 4.46 0.495 4.46 1 9h4v4h4l1 4c1.32 0.33 2.64 0.66 4 1v4c1.65 0.33 3.3 0.66 5 1v3c2.64 0.33 5.28 0.66 8 1v4h4v5h5v4h4v4c2.97 0.33 5.94 0.66 9 1v3h5v4c2.64 0.33 5.28 0.66 8 1v4h6v4h8v4c2.97 0.33 5.94 0.66 9 1v4h9v4l14 1v4h12c0.33 1.32 0.66 2.64 1 4 4.29 0.33 8.58 0.66 13 1v4h22v4h1032v-4h21v-4c4.62-0.33 9.24-0.66 14-1v-4h13v-4c2.64-0.33 5.28-0.66 8-1 0.33-1.32 0.66-2.64 1-4h9v-4c2.64-0.33 5.28-0.66 8-1 0.33-0.99 0.66-1.98 1-3 2.64-0.33 5.28-0.66 8-1v-4h5v-4l9-1v-4h4c0.33-1.32 0.66-2.64 1-4h4v-4h8v-4h6v-5h3v-4c1.32-0.33 2.64-0.66 4-1 0.33-1.32 0.66-2.64 1-4h4v-4h4c0.438 2.19 0.438 2.19 0 5-1.67 1.47-3.45 2.61-5.32 3.8-2.04 1.46-2.67 2.94-3.68 5.2-1.32 0.699-2.65 1.37-4 2-0.66 0.99-1.32 1.98-2 3h-2c-0.0825 0.619-0.165 1.24-0.25 1.88-0.75 2.12-0.75 2.12-2.75 3.25-0.66 0.289-1.32 0.577-2 0.875-0.33 0.66-0.66 1.32-1 2-2.32 0.407-4.66 0.744-7 1-0.0825 0.619-0.165 1.24-0.25 1.88-1 2.83-2.1 2.8-4.75 4.12-0.742 0.969-1.48 1.94-2.25 2.94-2.95 3.78-6.28 4.57-10.8 6.06-0.33 0.66-0.66 1.32-1 2-0.639 0.309-1.28 0.619-1.94 0.938-2.38 1.02-2.38 1.02-4.06 4.06-1.99 0.691-3.99 1.36-6 2-0.33 0.66-0.66 1.32-1 2-1.13 0.144-2.27 0.289-3.44 0.438-1.18 0.186-2.35 0.371-3.56 0.562-0.66 0.99-1.32 1.98-2 3-1.16 0.144-2.31 0.289-3.5 0.438-1.16 0.186-2.31 0.371-3.5 0.562-0.33 0.66-0.66 1.32-1 2-0.33 0.66-0.66 1.32-1 2-2.33 0.374-4.66 0.708-7 1-0.66 0.99-1.32 1.98-2 3-2.46 0.371-2.46 0.371-5.38 0.438-4.94 0.301-6.2 1.03-9.62 4.56-2.6 0.414-5.13 0.563-7.76 0.629-0.74 0.122-1.48 0.245-2.24 0.371-0.66 0.99-1.32 1.98-2 3-1.94 0.385-1.94 0.385-4.28 0.406-0.842 0.0219-1.68 0.0438-2.55 0.0664-2.67 0.0273-2.67 0.0273-5.34 0.0547-0.842 0.0219-1.68 0.0438-2.55 0.0664-0.773 0.00709-1.55 0.0142-2.34 0.0215-0.64 0.127-1.28 0.254-1.94 0.385-0.66 0.99-1.32 1.98-2 3-2.34 0.43-2.34 0.43-5.33 0.507-1.14 0.0349-2.27 0.0697-3.44 0.106-1.89 0.033-1.89 0.033-3.82 0.0666-1.35 0.0327-2.69 0.0662-4.04 0.1-17 0.397-34 0.361-51 0.349-5-0.00257-10 7.38e-4 -15 0.00324-8.73 0.00359-17.5 0.00352-26.2 9.53e-4 -13-0.0038-26-0.00184-39 0.00121-21.9 0.00495-43.7 0.00515-65.6 0.00242-21.6-0.0027-43.3-0.00375-64.9-0.00248-1.36 7.75e-5 -2.73 1.55e-4 -4.09 2.31e-4 -5.48 3.11e-4 -11 6.29e-4 -16.4 9.6e-4 -15.3 9.17e-4 -30.6 0.00149-45.9 0.00179-0.697 1.36e-5 -1.39 2.73e-5 -2.11 4.14e-5 -22.2 4.09e-4 -44.4-7.16e-4 -66.5-0.00289-0.719-7.02e-5 -1.44-1.4e-4 -2.18-2.13e-4 -11.7-0.00114-23.3-0.00236-35-0.00359-46.3-0.00486-92.6-0.00463-139 2.31e-4 -11.7 0.00122-23.3 0.00243-35 0.00357-1.08 1.06e-4 -1.08 1.06e-4 -2.18 2.13e-4 -22.2 0.00216-44.3 0.00307-66.5 0.00264-1.04-2.04e-5 -1.04-2.04e-5 -2.11-4.12e-5 -15.3-3.13e-4 -30.6-9.46e-4 -45.9-0.00187-5.47-3.29e-4 -10.9-6.42e-4 -16.4-9.51e-4 -1.36-7.74e-5 -2.72-1.56e-4 -4.08-2.36e-4 -21.6-0.00127-43.3 1.51e-4 -64.9 0.00285-22.4 0.00276-44.8 0.00173-67.2-0.00353-12.9-0.00293-25.8-0.00314-38.7 6.46e-4 -8.63 0.00225-17.3 8.32e-4 -25.9-0.0035-4.91-0.00237-9.82-0.00322-14.7 4.06e-4 -33.3 0.0224-33.3 0.0224-48.4-0.451-0.976-0.022-1.95-0.044-2.96-0.0666-0.869-0.0349-1.74-0.0697-2.63-0.106-0.742-0.0254-1.48-0.0508-2.25-0.0769-1.8-0.43-1.8-0.43-3.8-3.43-2.09-0.458-2.09-0.458-4.5-0.406-1.33-0.0329-1.33-0.0329-2.69-0.0664-0.928-0.00902-1.86-0.018-2.81-0.0273-1.83-0.0178-3.67-0.0485-5.5-0.0938l-2.47-0.0215c-0.67-0.127-1.34-0.254-2.03-0.385-0.66-0.99-1.32-1.98-2-3-2.59-0.547-2.59-0.547-5.5-0.625-5.34-0.295-5.34-0.295-7.5-1.38-0.33-0.99-0.66-1.98-1-3-0.699-0.0374-1.4-0.0748-2.12-0.113-0.91-0.0657-1.82-0.131-2.76-0.199-0.905-0.058-1.81-0.116-2.74-0.176-2.38-0.512-2.38-0.512-4.38-3.51-2.81-0.692-2.81-0.692-6-1-3.25-0.375-3.25-0.375-6-1-0.66-0.99-1.32-1.98-2-3-1.92-0.717-1.92-0.717-4.06-1.06-2.16-0.41-2.16-0.41-3.94-0.938-0.33-0.66-0.66-1.32-1-2-2.33-1.02-4.66-2.01-7-3-0.66-0.66-1.32-1.32-2-2-2-0.679-4-1.35-6-2-1.49-0.99-1.49-0.99-3-2v-2c-1.14-0.186-1.14-0.186-2.31-0.375-2.69-0.625-2.69-0.625-5.69-2.62v-2c-0.866-0.186-0.866-0.186-1.75-0.375-4.08-1.13-5.85-2.03-8.25-5.62-1.79-0.788-1.79-0.788-3.81-1.31-4.61-1.57-6.27-3.87-9.19-7.69-0.99-0.464-0.99-0.464-2-0.938-2.33-1.24-2.91-2.3-4.31-4.5-1.87-2.82-3.27-4.1-6.44-5.31-1.07-0.413-2.15-0.825-3.25-1.25-0.33-0.99-0.66-1.98-1-3-1.33-0.354-2.66-0.685-4-1-1.63-1.5-1.63-1.5-3-3l-2-1c-0.33-0.99-0.66-1.98-1-3-1.61-1.41-1.61-1.41-3.5-2.75-3.06-2.49-3.45-3.05-4.44-7.12-0.0206-1.03-0.0412-2.06-0.0625-3.12-0.99-0.33-1.98-0.66-3-1-0.66-0.99-1.32-1.98-2-3-1.48-0.495-1.48-0.495-3-1-1.21-1.67-1.21-1.67-2.38-3.75-1.67-2.85-3.03-4.64-5.44-7-2.19-2.25-2.19-2.25-2.19-6.25-0.99-0.33-1.98-0.66-3-1-0.688-2.06-0.688-2.06-1-4-1.32-0.33-2.64-0.66-4-1-0.33-2.64-0.66-5.28-1-8-0.866-0.0619-0.866-0.0619-1.75-0.125-3.46-1.35-4.5-3.7-6.25-6.88v-4z" fill="#000102"/>
<path transform="translate(1280,556)" d="m0 0h22v4c7.26 0.33 14.5 0.66 22 1 0.495 1.49 0.495 1.49 1 3 4.29 0.33 8.58 0.66 13 1v4c0.603-0.0116 1.21-0.0232 1.83-0.0352 1.2-0.0135 1.2-0.0135 2.42-0.0273 0.789-0.0116 1.58-0.0232 2.39-0.0352 2.27 0.0938 4.19 0.465 6.36 1.1v4h10v4h8v5h8v4h5c0.495 1.98 0.495 1.98 1 4l4 1v4h4v4c1.65 0.33 3.3 0.66 5 1v4h8v5c-0.33-0.66-0.66-1.32-1-2h-7c-0.247-0.619-0.495-1.24-0.75-1.88-1.05-2.24-1.05-2.24-3.06-3-3.2-1.65-4.9-4.38-7.19-7.12-1.32-0.696-2.65-1.37-4-2-0.33-0.99-0.66-1.98-1-3-1.32-0.699-2.65-1.37-4-2-0.33-0.66-0.66-1.32-1-2-0.969-0.289-1.94-0.577-2.94-0.875-3.06-1.12-3.06-1.12-4.44-3.25-0.309-0.928-0.309-0.928-0.625-1.88-0.743 0.0619-1.48 0.124-2.25 0.188-2.75-0.188-2.75-0.188-4.62-1.62-2.18-1.86-2.18-1.86-5.75-2.06-1.67-0.247-1.67-0.247-3.38-0.5-0.99-1.49-0.99-1.49-2-3-2.58-0.69-2.58-0.69-5.5-1-2.97-0.375-2.97-0.375-5.5-1-0.66-0.99-1.32-1.98-2-3-2.56-0.472-2.56-0.472-5.44-0.5-2.93-0.0938-2.93-0.0938-5.56-0.5-0.454-0.49-0.909-0.981-1.38-1.49-2.11-1.96-3.38-1.97-6.22-2.14-0.884-0.067-1.77-0.134-2.68-0.203-1.86-0.115-3.72-0.229-5.59-0.344-0.882-0.067-1.76-0.134-2.67-0.203-0.808-0.049-1.62-0.098-2.45-0.148-2.02-0.477-2.02-0.477-4.02-3.48-2.13-0.415-2.13-0.415-4.57-0.293-1.34 0.0145-1.34 0.0145-2.71 0.0293-0.937 0.0251-1.87 0.0503-2.84 0.0762-1.42 0.0203-1.42 0.0203-2.86 0.041-2.34 0.0354-4.67 0.0848-7.01 0.146v-4z" fill="#000102"/>
<path transform="translate(1422,470)" d="m0 0c4.45 0.99 4.45 0.99 9 2v4h5v4c2.64 0.33 5.28 0.66 8 1v4h5v4c2.97 0.33 5.94 0.66 9 1v4h5v4h8v5h4v4h6v4h3v5h5v4h4v5h5v4h4v5h4v4h5c-0.495 1.98-0.495 1.98-1 4-1.65-0.33-3.3-0.66-5-1v-4c-1.98-0.495-1.98-0.495-4-1v-4c-0.959-0.186-0.959-0.186-1.94-0.375-0.681-0.206-1.36-0.413-2.06-0.625-0.33-0.66-0.66-1.32-1-2-2.02-1.13-2.02-1.13-4-2v-4c-0.959-0.186-0.959-0.186-1.94-0.375-0.681-0.206-1.36-0.413-2.06-0.625-0.33-0.66-0.66-1.32-1-2-2.02-1.13-2.02-1.13-4-2v-4c-0.99-0.33-1.98-0.66-3-1-0.33-0.66-0.66-1.32-1-2-0.846-0.495-1.69-0.99-2.56-1.5-0.804-0.495-1.61-0.99-2.44-1.5v-2c-1.32-0.33-2.64-0.66-4-1v-4c-1.61 0.124-1.61 0.124-3.25 0.25-3.75-0.25-3.75-0.25-6-2.06-0.578-0.722-1.15-1.44-1.75-2.19-2.74-3.14-5.34-3.92-9.26-5.06-1.74-0.941-1.74-0.941-2.48-3.04-0.0851-0.628-0.17-1.26-0.258-1.9-0.579-0.129-1.16-0.258-1.75-0.391-6.42-1.74-10.6-4.96-15.2-9.61-2.59-1.5-5.26-2.78-8-4v-3z" fill="#000102"/>
<path transform="translate(320,485)" d="m0 0h35v4h30c-0.33 1.32-0.66 2.64-1 4-3.31 0.0295-6.62 0.0469-9.94 0.0625-1.39 0.0126-1.39 0.0126-2.81 0.0254-5.84 0.0205-11.5-0.334-17.3-1.09-0.495-1.49-0.495-1.49-1-3h-33v-4z" fill="#000102"/>
<path transform="translate(310 489)" d="m0 0c1.51 0.00677 1.51 0.00677 3.06 0.0137 2.46 0.0117 4.92 0.028 7.38 0.0488-0.33 0.99-0.66 1.98-1 3-0.868 0.0449-1.74 0.0898-2.63 0.136-3.22 0.173-6.43 0.359-9.65 0.554-1.39 0.0816-2.79 0.158-4.18 0.229-2 0.103-4 0.227-6 0.35-1.81 0.102-1.81 0.102-3.65 0.206-1.43 0.259-1.43 0.259-2.89 0.524-0.99 1.49-0.99 1.49-2 3-2.94 0.384-5.68 0.604-8.62 0.688-1.2 0.0512-1.2 0.0512-2.43 0.104-1.98 0.0826-3.96 0.147-5.95 0.209v-4c8.42-0.495 8.42-0.495 17-1 0.33-0.99 0.66-1.98 1-3 6.9-0.906 13.6-1.12 20.6-1.06z" fill="#000102"/>
<path transform="translate(1404,610)" d="m0 0c0.33 0.99 0.66 1.98 1 3 2.02 0.733 2.02 0.733 4 1v3h4c0.33 1.32 0.66 2.64 1 4 1.32 0.33 2.64 0.66 4 1v4h4v5c-3.41-1.2-5.56-2.33-8-5l-2-1c-0.33-0.99-0.66-1.98-1-3-1.72-1.59-3.55-2.98-5.41-4.4-1.85-1.86-2.3-3.01-2.59-5.6 0.33-0.66 0.66-1.32 1-2z" fill="#000102"/>
<path transform="translate(1467,865)" d="m0 0h3c-0.53 3.81-1.36 6.17-4 9-1.33 0.667-2.67 1.33-4 2-0.33 0.99-0.66 1.98-1 3-0.99 0.33-1.98 0.66-3 1v-6h4c0.33-1.65 0.66-3.3 1-5h4v-4z" fill="#000102"/>
<path transform="translate(88,806)" d="m0 0c2.47 0.495 2.47 0.495 5 1 0.33 2.97 0.66 5.94 1 9h4v6c-1.88-0.125-1.88-0.125-4-1-1.19-2.88-1.19-2.88-2-6-0.752-3.28-0.752-3.28-4-5v-4z" fill="#000102"/>
<path transform="translate(1263,559)" d="m0 0c5.61 0.33 11.2 0.66 17 1-0.33 0.99-0.66 1.98-1 3h-16v-4z" fill="#000102"/>
<path transform="translate(1511,543)" d="m0 0c0.33 1.32 0.66 2.64 1 4h4v4h5v5h3c-0.33 1.32-0.66 2.64-1 4-0.99-0.33-1.98-0.66-3-1v-5c-0.959-0.155-0.959-0.155-1.94-0.312-0.681-0.227-1.36-0.454-2.06-0.688-0.33-0.99-0.66-1.98-1-3-2.02-0.733-2.02-0.733-4-1v-6z" fill="#000102"/>
<path transform="translate(262,375)" d="m0 0c-3.02 2.01-3.81 2.27-7.23 2.41-0.802 0.0387-1.6 0.0773-2.43 0.117-0.833 0.0309-1.67 0.0619-2.53 0.0938-0.845 0.0387-1.69 0.0773-2.56 0.117-2.08 0.0942-4.17 0.177-6.25 0.258v-3c2.75-0.195 5.5-0.381 8.25-0.562 0.777-0.0561 1.55-0.112 2.36-0.17 0.754-0.0483 1.51-0.0967 2.29-0.146 0.691-0.0471 1.38-0.0943 2.09-0.143 2.15 0.0232 3.96 0.422 6.01 1.02z" fill="#000102"/>
<path transform="translate(1426,642)" d="m0 0c2.47 0.495 2.47 0.495 5 1v5h4v5c-2.47-0.99-2.47-0.99-5-2v-4c-1.32-0.33-2.64-0.66-4-1v-4z" fill="#000102"/>
<path transform="translate(218,520)" d="m0 0c1.32 0.33 2.64 0.66 4 1-1.28 3.85-2.43 4.21-6 6-2.32 0.722-4.65 1.4-7 2v-4c2.64-0.33 5.28-0.66 8-1l1-4z" fill="#000102"/>
<path transform="translate(258,498)" d="m0 0h13c-0.33 0.99-0.66 1.98-1 3-5.94 0.495-5.94 0.495-12 1v-4z" fill="#000102"/>
<path transform="translate(1524,561)" d="m0 0c0.33 1.32 0.66 2.64 1 4h4v5h4v4c-3.55-0.986-4.93-1.92-7.31-4.81-1.67-3.16-2.1-4.7-1.69-8.19z" fill="#000102"/>
<path transform="translate(245,503)" d="m0 0h12v3c-5.94 0.495-5.94 0.495-12 1v-4z" fill="#000102"/>
<path transform="translate(1481,843)" d="m0 0h3c-0.281 4.03-0.784 5.74-3.44 8.88-2.56 2.12-2.56 2.12-4.56 2.12v-6h5v-5z" fill="#000102"/>
<path transform="translate(234 379)" d="m0 0c1.76 0.0135 1.76 0.0135 3.55 0.0273 0.892 0.0116 1.78 0.0232 2.7 0.0352v2c-5.61 0.66-11.2 1.32-17 2v-3c3.61-1.13 6.98-1.1 10.8-1.06z" fill="#000102"/>
<path transform="translate(1537,585)" d="m0 0c0.33 0.66 0.66 1.32 1 2h4v9h4c-0.33 0.99-0.66 1.98-1 3-1.32-0.33-2.64-0.66-4-1-0.103-1.09-0.206-2.19-0.312-3.31-0.697-3.74-1-4.35-3.69-6.69v-3z" fill="#000102"/>
<path transform="translate(682,331)" d="m0 0h2v4h5v4h4c-0.33 0.99-0.66 1.98-1 3-2.47-1.15-4.05-2.05-6-4-0.99-0.33-1.98-0.66-3-1-0.33-1.98-0.66-3.96-1-6z" fill="#000102"/>
<path transform="translate(196,538)" d="m0 0h5c-1 3-1 3-2.81 3.94-0.722 0.351-1.44 0.701-2.19 1.06-1.37 1.29-2.71 2.62-4 4-0.33-1.32-0.66-2.64-1-4 1.32-0.33 2.64-0.66 4-1l1-4z" fill="#000102"/>
<path transform="translate(84,794)" d="m0 0c0.33 1.32 0.66 2.64 1 4h4v6c-2.44-0.688-2.44-0.688-5-2-1.18-3.29-1.12-4.65 0-8z" fill="#000102"/>
<path transform="translate(75,767)" d="m0 0c0.33 1.32 0.66 2.64 1 4h4v6c-2.44-0.688-2.44-0.688-5-2-1.18-3.29-1.12-4.65 0-8z" fill="#000102"/>
<path transform="translate(1555,625)" d="m0 0c2.97 0.495 2.97 0.495 6 1v5c-1.65-0.33-3.3-0.66-5-1-0.33-1.65-0.66-3.3-1-5z" fill="#000102"/>
<path transform="translate(274,370)" d="m0 0v3c-5.94 0.495-5.94 0.495-12 1v-3c1.44-0.169 2.87-0.335 4.31-0.5 0.801-0.0928 1.6-0.186 2.43-0.281 2.26-0.219 2.26-0.219 5.26-0.219z" fill="#000102"/>
<path transform="translate(707,360)" d="m0 0c1.32 0.33 2.64 0.66 4 1v5h4c-0.33 1.32-0.66 2.64-1 4l-4-2v-4c-0.99-0.33-1.98-0.66-3-1v-3z" fill="#000102"/>
<path transform="translate(236,507)" d="m0 0h9c-0.33 0.99-0.66 1.98-1 3-2.64 0.33-5.28 0.66-8 1v-4z" fill="#000102"/>
<path transform="translate(1509,693)" d="m0 0h1v10h-1v-10z" fill="#FCFDFF"/>
<path transform="translate(1363,410)" d="m0 0h1v7h-1v-7z" fill="#FCFDFF"/>
<path transform="translate(66,706)" d="m0 0h1v6h-1v-6z" fill="#000102"/>
<path transform="translate(1505,779)" d="m0 0h1v5h-1v-5z" fill="#FCFDFF"/>
<path transform="translate(1216,198)" d="m0 0h2c-0.33 0.66-0.66 1.32-1 2-0.33-0.66-0.66-1.32-1-2z" fill="#000102"/>
<path transform="translate(1273,270)" d="m0 0 2 1z" fill="#000102"/>
<path transform="translate(1127,142)" d="m0 0 2 1z" fill="#000102"/>
<path transform="translate(1230,57)" d="m0 0 2 1z" fill="#000102"/>
</svg>
