<?xml version="1.0" encoding="UTF-8"?>
<svg version="1.1" xmlns="http://www.w3.org/2000/svg" width="260" height="58">
<path d="M0 0 C1.65 0 3.3 0 5 0 C7.52958084 5.5409866 9.33846988 11.14340094 11 17 C13.52958084 11.4590134 15.33846988 5.85659906 17 0 C19.31 0 21.62 0 24 0 C25.98 5.61 27.96 11.22 30 17 C32.4372552 10.5251697 32.4372552 10.5251697 34.6875 4 C35.06455078 2.8553125 35.06455078 2.8553125 35.44921875 1.6875 C35.63097656 1.130625 35.81273437 0.57375 36 0 C37.98 0 39.96 0 42 0 C41.35856108 6.44149223 39.45254731 12.30457383 37.4375 18.4375 C37.10814453 19.45521484 36.77878906 20.47292969 36.43945312 21.52148438 C35.63136468 24.01601826 34.81809872 26.50873483 34 29 C31.69 29 29.38 29 27 29 C25.02 23.39 23.04 17.78 21 12 C18.8569209 15.21461866 18.01544456 17.92801903 16.9375 21.625 C15.10296412 27.89703588 15.10296412 27.89703588 14 29 C12.00041636 29.04080783 9.99954746 29.04254356 8 29 C-0.72857143 8.01428571 -0.72857143 8.01428571 0 0 Z " fill="#FEFEFE" transform="translate(0,23)"/>
<path d="M0 0 C1.98 0 3.96 0 6 0 C6.33 5.94 6.66 11.88 7 18 C8.65 17.01 10.3 16.02 12 15 C16.77801015 15 18.74016548 15.17272669 22.73046875 17.79296875 C26.22210695 22.72693598 25.53593158 27.43109342 25.3125 33.3125 C25.28994141 34.43462891 25.26738281 35.55675781 25.24414062 36.71289062 C25.18533776 39.47662536 25.10320401 42.23762554 25 45 C23.02 45 21.04 45 19 45 C18.98541748 44.37432129 18.97083496 43.74864258 18.95581055 43.10400391 C18.88147196 40.27703598 18.78476766 37.45126792 18.6875 34.625 C18.66494141 33.64015625 18.64238281 32.6553125 18.61914062 31.640625 C18.5659668 30.22910156 18.5659668 30.22910156 18.51171875 28.7890625 C18.48553467 27.91975098 18.45935059 27.05043945 18.43237305 26.15478516 C18.18654782 23.61399973 18.18654782 23.61399973 15 22 C11.92334973 22.08221709 11.92334973 22.08221709 9 23 C6.94872156 26.07691766 6.72739128 26.93644999 6.5859375 30.44921875 C6.54726562 31.29677734 6.50859375 32.14433594 6.46875 33.01757812 C6.4378125 33.89865234 6.406875 34.77972656 6.375 35.6875 C6.33632812 36.58017578 6.29765625 37.47285156 6.2578125 38.39257812 C6.16359782 40.5948462 6.07798412 42.79710722 6 45 C4.02 45 2.04 45 0 45 C0 30.15 0 15.3 0 0 Z " fill="#FEFEFE" transform="translate(131,7)"/>
<path d="M0 0 C4.84314856 5.13667271 4.0625 7.6531813 4.0625 15.1875 C-6.3325 15.6825 -6.3325 15.6825 -16.9375 16.1875 C-12.85040821 21.24945998 -12.85040821 21.24945998 -9.83984375 21.52734375 C-9.19144531 21.39457031 -8.54304687 21.26179688 -7.875 21.125 C-7.19308594 20.9909375 -6.51117188 20.856875 -5.80859375 20.71875 C-3.68241591 20.11507529 -1.81453343 19.36064589 0.0625 18.1875 C1.0525 18.8475 2.0425 19.5075 3.0625 20.1875 C2.11158327 22.69446229 1.12448622 24.13151245 -0.875 25.9375 C-5.54912549 27.84530632 -9.96133568 27.84514286 -14.9375 27.1875 C-19.36868719 25.05103475 -22.1665203 22.81172478 -23.9375 18.1875 C-24.60291913 12.81485666 -24.63325726 8.57901451 -22.1875 3.6875 C-16.04054896 -3.14244559 -8.14912781 -5.02818524 0 0 Z M-15.9375 5.1875 C-16.5975 6.8375 -17.2575 8.4875 -17.9375 10.1875 C-12.6575 10.1875 -7.3775 10.1875 -1.9375 10.1875 C-2.42902482 5.32617505 -2.42902482 5.32617505 -4.9375 3.1875 C-9.45795007 1.55511525 -12.01006589 2.56921059 -15.9375 5.1875 Z " fill="#FEFEFE" transform="translate(185.9375,24.8125)"/>
<path d="M0 0 C4.84314856 5.13667271 4.0625 7.6531813 4.0625 15.1875 C-6.3325 15.6825 -6.3325 15.6825 -16.9375 16.1875 C-15.2875 17.8375 -13.6375 19.4875 -11.9375 21.1875 C-8.22555625 21.12121529 -5.584568 20.46691573 -2.1875 19 C-1.445 18.731875 -0.7025 18.46375 0.0625 18.1875 C1.0525 18.8475 2.0425 19.5075 3.0625 20.1875 C2.11158327 22.69446229 1.12448622 24.13151245 -0.875 25.9375 C-5.54912549 27.84530632 -9.96133568 27.84514286 -14.9375 27.1875 C-19.36868719 25.05103475 -22.1665203 22.81172478 -23.9375 18.1875 C-24.60291913 12.81485666 -24.63325726 8.57901451 -22.1875 3.6875 C-16.04054896 -3.14244559 -8.14912781 -5.02818524 0 0 Z M-14.9375 4.1875 C-17.39098157 6.80409096 -17.39098157 6.80409096 -17.9375 10.1875 C-12.6575 10.1875 -7.3775 10.1875 -1.9375 10.1875 C-3.17541434 4.17955555 -3.17541434 4.17955555 -6.75 2.6875 C-10.36704536 2.12012034 -11.81326411 2.32984623 -14.9375 4.1875 Z " fill="#FEFEFE" transform="translate(68.9375,24.8125)"/>
<path d="M0 0 C3.60057274 3.96063001 3.50330882 8.21495659 3.3515625 13.33984375 C2.71571586 18.1510833 0.41661708 20.71216629 -3.0625 23.875 C-7.68454489 25.64514485 -12.11938901 25.6521815 -17 25 C-21.07024037 22.96487982 -23.55025251 20.79095003 -26 17 C-27.2060331 12.37432874 -27.39923357 8.24466937 -25.9375 3.6875 C-23.24678888 -0.04477671 -20.37028159 -2.89386859 -16.125 -4.875 C-9.55628044 -5.26139527 -5.0924049 -4.26340875 0 0 Z M-18 3 C-20.46457267 6.696859 -20.67738914 9.7098688 -20 14 C-18.16462757 17.19490757 -17.00524004 18.61336921 -13.5625 19.9375 C-9.56969608 20.03488546 -7.10456429 19.02838745 -4.1875 16.3125 C-2.48166086 12.99060274 -2.54747434 10.68485182 -3 7 C-4.40878096 4.0098357 -4.40878096 4.0098357 -7 2 C-11.24020425 0.864231 -14.3546275 0.29972408 -18 3 Z " fill="#FEFEFE" transform="translate(257,27)"/>
<path d="M0 0 C3.14946597 2.12079147 4.75512057 3.76555229 5.50561523 7.54882812 C5.7534599 10.62425052 5.84471673 13.66489159 5.875 16.75 C5.92527344 18.34908203 5.92527344 18.34908203 5.9765625 19.98046875 C6.11739344 25.50808319 6.11739344 25.50808319 6 28 C5 29 5 29 2.4375 29.0625 C1.633125 29.041875 0.82875 29.02125 0 29 C-0.33 28.34 -0.66 27.68 -1 27 C-1.99 27.66 -2.98 28.32 -4 29 C-8.76841307 29.69505682 -12.77765147 29.6485931 -17.0625 27.375 C-19.45451022 24.44285843 -20 22.77982428 -20 19 C-18.23168179 14.77568429 -16.0549463 12.99610577 -12 11 C-8.88671875 10.70703125 -8.88671875 10.70703125 -5.6875 10.8125 C-4.08455078 10.85310547 -4.08455078 10.85310547 -2.44921875 10.89453125 C-1.64097656 10.92933594 -0.83273438 10.96414062 0 11 C-1.91086943 7.20244417 -1.91086943 7.20244417 -5.375 5.0625 C-8.40428726 4.99037411 -10.22308919 5.86075454 -13 7 C-15.3125 6.625 -15.3125 6.625 -17 6 C-17 4.68 -17 3.36 -17 2 C-11.31619219 -0.583549 -6.09878693 -2.27746442 0 0 Z M-13 18 C-13.042721 19.66611905 -13.04063832 21.33382885 -13 23 C-11.7775907 24.44244751 -11.7775907 24.44244751 -8.125 24.25 C-5.5625898 24.20416082 -4.29997497 24.17417902 -2.0625 22.875 C-0.61408488 20.31897331 -0.32184417 17.89659753 0 15 C-5.23175837 14.61718841 -8.37802694 15.78145293 -13 18 Z " fill="#FEFEFE" transform="translate(97,23)"/>
<path d="M0 0 C1.98 0 3.96 0 6 0 C6 2.64 6 5.28 6 8 C8.64 8 11.28 8 14 8 C14 9.65 14 11.3 14 13 C11.36 13 8.72 13 6 13 C6.33 18.94 6.66 24.88 7 31 C9.31 31 11.62 31 14 31 C14 32.98 14 34.96 14 37 C12.39667209 37.08121924 10.79215974 37.13929134 9.1875 37.1875 C7.84751953 37.23970703 7.84751953 37.23970703 6.48046875 37.29296875 C4 37 4 37 2.23828125 35.61328125 C0.10580695 32.83501031 -0.12059018 31.0885276 -0.09765625 27.6484375 C-0.09443359 26.79765625 -0.09121094 25.946875 -0.08789062 25.0703125 C-0.07951172 24.18085937 -0.07113281 23.29140625 -0.0625 22.375 C-0.05798828 21.4778125 -0.05347656 20.580625 -0.04882812 19.65625 C-0.03702591 17.43743352 -0.02056155 15.21874982 0 13 C-1.98 13 -3.96 13 -6 13 C-6 11.35 -6 9.7 -6 8 C-4.02 8 -2.04 8 0 8 C0 5.36 0 2.72 0 0 Z " fill="#FEFEFE" transform="translate(111,15)"/>
<path d="M0 0 C0 1.98 0 3.96 0 6 C-4.455 6.495 -4.455 6.495 -9 7 C-9.75115321 10.00461285 -10.16527775 12.305555 -10.31640625 15.328125 C-10.35830078 16.12734375 -10.40019531 16.9265625 -10.44335938 17.75 C-10.50233398 18.9875 -10.50233398 18.9875 -10.5625 20.25 C-10.60568359 21.09046875 -10.64886719 21.9309375 -10.69335938 22.796875 C-10.79908543 24.86440671 -10.90001295 26.93218281 -11 29 C-12.98 29 -14.96 29 -17 29 C-17 19.43 -17 9.86 -17 0 C-15.02 0 -13.04 0 -11 0 C-10.67 0.66 -10.34 1.32 -10 2 C-9.278125 1.484375 -8.55625 0.96875 -7.8125 0.4375 C-4.5804634 -1.21442982 -3.38391693 -1.06351675 0 0 Z " fill="#FEFEFE" transform="translate(213,23)"/>
<path d="M0 0 C1.98 0 3.96 0 6 0 C6 9.57 6 19.14 6 29 C4.02 29 2.04 29 0 29 C0 19.43 0 9.86 0 0 Z " fill="#FEFEFE" transform="translate(218,23)"/>
<path d="M0 0 C4.55555556 0.55555556 4.55555556 0.55555556 6 2 C6.1875 4.4375 6.1875 4.4375 6 7 C5.34 7.66 4.68 8.32 4 9 C-0.55555556 8.44444444 -0.55555556 8.44444444 -2 7 C-2.1875 4.5625 -2.1875 4.5625 -2 2 C-1.34 1.34 -0.68 0.68 0 0 Z " fill="#FEFEFE" transform="translate(219,9)"/>
</svg>
